<?xml version="1.0" encoding="UTF-8"?>
<svg width="66px" height="38px" viewBox="0 0 66 38" version="1.1" xmlns="http://www.w3.org/2000/svg" xmlns:xlink="http://www.w3.org/1999/xlink">
    <!-- Generator: Sketch 47.1 (45422) - http://www.bohemiancoding.com/sketch -->
    <title>MEDIATsENTR_LOGO</title>
    <desc>Created with Sketch.</desc>
    <defs></defs>
    <g id="Symbols" stroke="none" stroke-width="1" fill="none" fill-rule="evenodd">
        <g id="nav-copy-5" transform="translate(-62.000000, -37.000000)" stroke="#979797">
            <g id="MEDIATsENTR_LOGO" transform="translate(63.000000, 38.000000)">
                <polyline id="Fill-1" points="16 18.5001062 0 28 0 9 16 18.5001062"></polyline>
                <polyline id="Fill-2" points="48 18.5001062 32 28 32 9 48 18.5001062"></polyline>
                <polyline id="Fill-3" points="16 18.5001062 32 28 32 9 16 18.5001062"></polyline>
                <polyline id="Fill-4" points="48 18.5001062 64 28 64 9 48 18.5001062"></polyline>
                <polyline id="Fill-5" points="16 18 16 0 0 8.99989937 16 18"></polyline>
                <polyline id="Fill-6" points="16 36 16 18 0 26.9998994 16 36"></polyline>
                <polyline id="Fill-7" points="48 18 48 0 32 8.99989937 48 18"></polyline>
                <polyline id="Fill-8" points="16 18 16 0 32 8.99989937 16 18"></polyline>
                <polyline id="Fill-9" points="48 18 48 0 64 8.99989937 48 18"></polyline>
                <polyline id="Fill-10" points="48 36 48 18 64 26.9998994 48 36"></polyline>
            </g>
        </g>
    </g>
</svg>