<?xml version="1.0" encoding="UTF-8"?>
<svg width="453px" height="435px" viewBox="0 0 453 435" version="1.1" xmlns="http://www.w3.org/2000/svg" xmlns:xlink="http://www.w3.org/1999/xlink">
    <!-- Generator: Sketch 47.1 (45422) - http://www.bohemiancoding.com/sketch -->
    <title>Group 6</title>
    <desc>Created with Sketch.</desc>
    <defs></defs>
    <g id="Page-1" stroke="none" stroke-width="1" fill="none" fill-rule="evenodd">
        <g id="Desktop-HD-Copy" transform="translate(-813.000000, -994.000000)">
            <g id="Group-13" transform="translate(135.000000, 994.000000)">
                <g id="Group-6" transform="translate(678.000000, 0.000000)">
                    <path d="M263,136.091147 L234.965747,157.075166 L206.772491,222.807203 L184.10081,222.807203 L175.198636,203.516488 L181.014926,203.516488 C191.653986,203.516488 200.306008,194.956791 200.306008,184.317933 L200.306008,164.935059 L209.951549,164.935059 L209.951549,136 L181.014926,136 L181.014926,164.935059 L190.660467,164.935059 L190.660467,184.317933 C190.660467,189.632805 186.334962,193.871131 181.014926,193.871131 L170.747549,193.871131 L158.420215,167.202589 L173.187292,159.842991 L124.835016,139.134437 L113.46778,178.915966 C113.158888,155.247167 93.8343846,136.087096 70.0922152,136.087096 C46.1576211,136.087096 26.6882928,155.556053 26.6882928,179.490191 C26.6882928,193.953163 34.0135972,207.518846 45.9793751,215.538752 L45.9793751,222.80619 L34.299196,222.80619 L33.5467141,226.760949 C31.2031838,238.91892 30.9854401,251.414134 32.9005722,263.875927 L0,322.518768 L36.3338339,330.818191 L36.3338339,391.596905 L84.5605269,391.596905 L84.5605269,435 L200.304995,435 L200.304995,367.797462 C234.063377,343.915986 253.344331,305.518876 253.315974,264.555477 L253.326102,246.963131 C253.326102,240.331695 252.713381,233.517965 251.478824,226.804497 L250.764828,222.80619 L241.297532,222.80619 L263,170.814028 L263,136.091147 L263,136.091147 L263,136.091147 Z M190.659454,155.381861 L190.659454,145.736504 L200.304995,145.736504 L200.304995,155.381861 L190.659454,155.381861 L190.659454,155.381861 L190.659454,155.381861 Z M173.476941,222.80619 L155.184442,222.80619 L146.416965,203.515476 L164.574767,203.515476 L173.476941,222.80619 L173.476941,222.80619 L173.476941,222.80619 Z M131.094895,152.324393 L150.265459,160.537732 L145.741453,162.755638 L160.122667,193.871131 L142.03272,193.871131 L130.279622,168.075573 L125.963233,170.254994 L131.094895,152.324393 L131.094895,152.324393 L131.094895,152.324393 Z M144.58893,222.807203 L123.142692,222.807203 L123.142692,213.254005 C123.142692,207.935083 127.468196,203.517501 132.788233,203.517501 L135.821454,203.517501 L135.821454,203.516488 L144.58893,222.807203 L144.58893,222.807203 L144.58893,222.807203 Z M125.650289,181.220967 L131.5,194.092922 C121.468597,194.768421 113.49715,203.053665 113.49715,213.252993 L113.49715,222.80619 L94.2060681,222.80619 L94.2060681,215.538752 C103.856673,209.07138 110.405189,198.97839 112.614022,187.736951 L125.650289,181.220967 L125.650289,181.220967 L125.650289,181.220967 Z M36.3348467,179.495255 C36.3348467,160.885103 51.4827214,145.737517 70.093228,145.737517 C88.7037345,145.737517 103.851609,160.885103 103.851609,179.495255 C103.851609,191.474983 97.3800628,202.66781 86.9678612,208.700716 L84.5615397,210.089186 L84.5615397,222.80619 L74.9159986,222.80619 L74.9159986,193.070052 C80.5155572,191.073937 84.5615397,185.76818 84.5615397,179.489178 C84.5615397,171.51282 78.0697381,165.021142 70.093228,165.021142 C62.1167179,165.021142 55.6249162,171.513833 55.6249162,179.490191 C55.6249162,185.769193 59.6708987,191.073937 65.2704574,193.071065 L65.2704574,222.807203 L55.6249162,222.807203 L55.6249162,210.089186 L53.2185948,208.695652 C42.8063931,202.662747 36.3348467,191.47397 36.3348467,179.495255 L36.3348467,179.495255 L36.3348467,179.495255 Z M70.093228,184.317933 C67.4306778,184.317933 65.2704574,182.151678 65.2704574,179.495255 C65.2704574,176.832755 67.4306778,174.672576 70.093228,174.672576 C72.7557781,174.672576 74.9159986,176.832755 74.9159986,179.495255 C74.9159986,182.157754 72.7557781,184.317933 70.093228,184.317933 L70.093228,184.317933 L70.093228,184.317933 Z M242.647544,232.45256 C243.347362,237.274226 243.699803,242.164759 243.699803,246.919584 L243.70993,264.546363 C243.739301,303.180454 224.675077,339.358646 192.782202,361.315911 L190.660467,362.76312 L190.660467,425.355655 L94.2070809,425.355655 L94.2070809,381.95256 L45.9793751,381.95256 L45.9793751,323.126413 L14.7235276,315.99367 L42.9552691,265.660379 L42.6808107,263.938717 C40.8872099,253.386956 40.7859338,242.096905 42.3435611,232.45256 L45.9793751,232.45256 L94.2060681,232.45256 L242.647544,232.45256 L242.647544,232.45256 L242.647544,232.45256 Z M230.846846,222.80619 L217.261662,222.80619 L241.302596,166.757995 L251.99432,172.081981 L230.846846,222.80619 L230.846846,222.80619 L230.846846,222.80619 Z M253.354459,162.041655 L248.020244,159.375104 L253.354459,155.381861 L253.354459,162.041655 L253.354459,162.041655 Z M79.7387691,261.387619 C71.762259,261.387619 65.2704574,256.564941 65.2704574,246.919584 L55.6249162,246.919584 C55.6249162,261.387619 66.4422225,271.032977 79.7387691,271.032977 C93.0353157,271.032977 103.852622,261.387619 103.852622,246.919584 L94.2070809,246.919584 C94.2060681,256.564941 87.7152792,261.387619 79.7387691,261.387619 L79.7387691,261.387619 Z" id="idea-1" fill="#4A90E2"></path>
                    <path d="M326.87471,72.4429458 C326.87471,42.6282784 302.70859,18.3758701 273,18.3758701 C243.29141,18.3758701 219.12529,42.6282784 219.12529,72.4429458 C219.12529,90.459417 228.217755,107.358138 243.070164,117.348505 L243.070164,126.816583 C236.245473,128.210617 231.097727,134.277504 231.097727,141.529004 C231.097727,146.875535 233.911074,151.537033 238.107209,154.205252 C237.472384,155.869262 237.083946,157.659429 237.083946,159.551783 C237.083946,167.836509 243.794243,174.570766 252.049492,174.570766 L293.951765,174.570766 C302.207014,174.570766 308.917311,167.836509 308.917311,159.551783 C308.917311,157.659429 308.527616,155.869262 307.894048,154.205252 C312.090183,151.538295 314.90353,146.875535 314.90353,141.529004 C314.90353,134.272457 309.755784,128.210617 302.931093,126.816583 L302.931093,117.348505 C317.782245,107.358138 326.87471,90.459417 326.87471,72.4429458 L326.87471,72.4429458 L326.87471,72.4429458 Z M293.830638,162.041763 L252.170612,162.041763 C250.533405,162.041763 249.194896,160.726771 249.194896,159.118329 C249.194896,157.509888 250.533405,156.194896 252.170612,156.194896 L293.829388,156.194896 C295.466595,156.194896 296.805104,157.509888 296.805104,159.118329 C296.805104,160.726771 295.466595,162.041763 293.830638,162.041763 L293.830638,162.041763 L293.830638,162.041763 Z M300.480278,143.665893 L294.466357,143.665893 L252.36891,143.665893 L246.354988,143.665893 C244.700592,143.665893 243.348028,142.350901 243.348028,140.742459 C243.348028,139.134018 244.701855,137.819026 246.356251,137.819026 L300.480278,137.819026 C302.134675,137.819026 303.487239,139.134018 303.487239,140.742459 C303.487239,142.350901 302.134675,143.665893 300.480278,143.665893 L300.480278,143.665893 L300.480278,143.665893 Z M266.735499,71.8329466 C266.735499,68.605014 269.354434,65.9860789 272.582367,65.9860789 C275.810299,65.9860789 278.429234,68.605014 278.429234,71.8329466 C278.429234,75.0608793 275.810299,77.6798144 272.582367,77.6798144 C269.355662,77.6798144 266.735499,75.0596515 266.735499,71.8329466 L266.735499,71.8329466 L266.735499,71.8329466 Z M294.084793,108.450994 L291.078103,110.18577 L291.078103,126.12529 L279.026034,126.12529 L279.026034,88.9990557 C286.022662,86.5141396 291.078103,79.9091294 291.078103,72.0925492 C291.078103,62.1629709 282.96662,54.0816356 273,54.0816356 C263.03338,54.0816356 254.921897,62.1629709 254.921897,72.0925492 C254.921897,79.9091294 259.977338,86.5128789 266.973966,88.9990557 L266.973966,126.12529 L254.921897,126.12529 L254.921897,110.18577 L251.915207,108.450994 C238.905199,100.940773 230.819026,87.0058277 230.819026,72.0938099 C230.819026,48.9264749 249.74624,30.0696056 273,30.0696056 C296.25376,30.0696056 315.180974,48.9264749 315.180974,72.0938099 C315.180974,87.0070885 307.094801,100.940773 294.084793,108.450994 L294.084793,108.450994 Z M323.321347,281.218046 C320.597317,274.278323 314.036765,269.791183 306.615134,269.791183 L302.789926,269.791183 L302.789926,200.631385 C302.789926,189.025188 293.39221,179.582367 281.83865,179.582367 C270.28509,179.582367 260.887374,189.023926 260.887374,200.631385 L260.887374,229.227589 C258.762957,228.319552 256.511578,227.694409 254.12318,227.694409 L248.442565,227.694409 C238.804752,227.694409 230.95698,235.578793 230.95698,245.261569 L230.95698,245.736425 L224.498249,245.736425 C214.860436,245.736425 207.012664,253.620809 207.012664,263.303585 L207.012664,263.778441 L206.54127,263.778441 C196.903457,263.778441 189.055684,271.662825 189.055684,281.3456 L189.055684,281.820457 L189.055684,283.046748 L189.055684,295.116435 C189.055684,303.39106 190.713735,311.432045 193.988354,319.027221 L203.063008,340.069925 C205.685218,346.149602 207.013921,352.579106 207.013921,359.200574 L207.013921,360 L218.986079,360 L218.986079,359.19426 C218.986079,350.919635 217.328028,342.87865 214.053409,335.283474 L204.978755,314.24077 C203.422525,310.632619 202.375401,306.885548 201.74059,303.06649 L224.248096,325.678999 C227.750241,329.197482 232.347278,330.952935 236.944316,330.952935 C241.541353,330.952935 246.13839,329.197482 249.640535,325.678999 L250.67006,324.644671 C253.507225,321.79427 255.135107,318.216429 255.674382,314.511034 C255.913222,314.523663 256.147033,314.576705 256.38713,314.576705 C259.613981,314.576705 262.858431,313.68635 265.71948,311.863962 L266.084025,311.635374 C266.940077,311.058222 267.711906,310.396454 268.442253,309.69301 C271.1424,312.134226 274.439645,313.969243 278.158004,314.901275 L286.185534,316.92194 L291.135802,331.830662 L302.48572,328.024233 L295.463831,306.848923 L281.061792,303.228144 C276.230944,302.019533 272.860789,297.688995 272.860789,292.691637 C272.860789,286.695312 277.715521,281.817931 283.684002,281.817931 L290.819026,281.817931 L302.791183,281.817931 L306.616391,281.817931 C309.052556,281.817931 311.291365,283.351111 312.183872,285.624359 L319.504939,304.291519 C320.330822,306.408166 320.74942,308.633423 320.74942,310.900357 L320.74942,312.223893 C320.74942,315.008623 320.09701,317.804718 318.857558,320.293925 L311.937489,334.198629 C309.872154,338.342256 308.777262,342.997364 308.777262,347.633528 L308.777262,359.997474 L320.74942,359.997474 L320.74942,347.633528 C320.74942,344.848798 321.40183,342.052703 322.641282,339.563496 L329.56135,325.658792 C331.626686,321.515165 332.721578,316.860057 332.721578,312.223893 L332.721578,310.900357 C332.721578,307.117924 332.0214,303.412529 330.638644,299.882679 L323.321347,281.218046 L323.321347,281.218046 Z M242.411599,316.254418 L241.369949,317.295961 C239.001754,319.663914 235.17474,319.663914 232.806544,317.295961 L202.385026,286.87756 C201.330658,285.8233 200.74942,284.419315 200.74942,282.928853 L200.74942,281.694008 L200.74942,281.215839 C200.74942,278.139535 203.25116,275.638051 206.327779,275.638051 L208.042241,275.638051 C209.531584,275.638051 210.936985,276.21923 211.984994,277.27349 L242.406512,307.691891 C244.774707,310.053485 244.774707,313.892824 242.411599,316.254418 L242.411599,316.254418 Z M261.67625,299.086358 C261.422963,300.061679 260.849932,301.284963 259.572212,302.192889 L259.453092,302.271728 C257.273821,303.736617 254.366036,303.446691 252.520301,301.574889 L250.723469,299.752679 L220.731531,269.337163 C219.69832,268.283003 219.12529,266.879151 219.12529,265.38883 L219.12529,263.674707 C219.12529,260.598695 221.591703,258.097448 224.624878,258.097448 L231.30062,258.097448 C233.019711,258.097448 234.649776,258.926534 235.682986,260.313855 L249.536029,279.036965 L260.821093,294.265704 C260.868741,294.326741 260.910119,294.429741 260.959021,294.429741 L260.97156,294.429741 L261.031747,294.539099 C261.115758,296.071383 261.353999,297.573148 261.723898,299.020235 C261.706343,299.044395 261.700074,299.068556 261.67625,299.086358 L261.67625,299.086358 Z M273.417628,271.294979 C273.423944,272.947571 268.142658,275.518548 265.664332,281.484919 L265.646648,281.484919 L252.744699,263.257544 L245.610353,253.246771 L244.460875,251.289721 C243.726977,250.317461 243.348028,249.034478 243.348028,247.829176 L243.348028,245.216853 C243.348028,242.186057 245.83267,239.721578 248.888262,239.721578 L254.596496,239.721578 C256.604926,239.721578 257.405771,240.807853 258.37967,242.549402 L273.417628,271.288715 L273.417628,271.294979 L273.417628,271.294979 Z M291.793503,269.791183 L288.590429,269.791183 L273.417634,243.152547 L273.417634,201.074569 C273.416347,196.133076 277.53918,192.111369 282.604925,192.111369 C287.670671,192.111369 291.793503,196.133076 291.793503,201.074569 L291.793503,269.791183 L291.793503,269.791183 Z M266.735499,0 L278.429234,0 L278.429234,11.6937355 L266.735499,11.6937355 L266.735499,0 L266.735499,0 Z M242.24616,6.68213457 L248.359629,17.2740027 L237.767761,23.387471 L231.654292,12.7956029 L242.24616,6.68213457 L242.24616,6.68213457 Z M213.545023,30.9048724 L224.136891,37.0183407 L218.023423,47.6102088 L207.431555,41.4967405 L213.545023,30.9048724 L213.545023,30.9048724 Z M200.74942,65.9860789 L212.443155,65.9860789 L212.443155,77.6798144 L200.74942,77.6798144 L200.74942,65.9860789 L200.74942,65.9860789 Z M213.545023,113.596288 L207.431555,103.00442 L218.023423,96.8909513 L224.136891,107.482819 L213.545023,113.596288 L213.545023,113.596288 Z M332.454977,113.596288 L321.863109,107.482819 L327.976577,96.8909513 L338.568445,103.00442 L332.454977,113.596288 L332.454977,113.596288 Z M332.721578,65.9860789 L344.415313,65.9860789 L344.415313,77.6798144 L332.721578,77.6798144 L332.721578,65.9860789 L332.721578,65.9860789 Z M332.454977,30.9048724 L338.568445,41.4967405 L327.976577,47.6102088 L321.863109,37.0183407 L332.454977,30.9048724 L332.454977,30.9048724 Z M303.75384,6.68213457 L314.345708,12.7956029 L308.232239,23.387471 L297.640371,17.2740027 L303.75384,6.68213457 L303.75384,6.68213457 Z M441.027423,72.1117879 L441.027423,60.1392111 L429.056103,60.1392111 L429.056103,72.1117879 L417.083527,72.1117879 L417.083527,84.0843647 L429.056103,84.0843647 L429.056103,96.0556845 L441.027423,96.0556845 L441.027423,84.0843647 L453,84.0843647 L453,72.1117879 L441.027423,72.1117879 L441.027423,72.1117879 Z M380.609371,35.9164733 L392.581948,35.9164733 L392.581948,23.9451536 L404.554524,23.9451536 L404.554524,11.9725768 L392.581948,11.9725768 L392.581948,0 L380.609371,0 L380.609371,11.9725768 L368.638051,11.9725768 L368.638051,23.9451536 L380.609371,23.9451536 L380.609371,35.9164733 L380.609371,35.9164733 Z M116.945154,96.0556845 L104.972577,96.0556845 L104.972577,108.027842 L93,108.027842 L93,120 L104.972577,120 L104.972577,131.972158 L116.945154,131.972158 L116.945154,120 L128.916473,120 L128.916473,108.027842 L116.945154,108.027842 L116.945154,96.0556845 L116.945154,96.0556845 Z M170.679814,47.8886311 L158.707657,47.8886311 L158.707657,35.9164733 L146.735499,35.9164733 L146.735499,47.8886311 L134.763341,47.8886311 L134.763341,59.8607889 L146.735499,59.8607889 L146.735499,71.8329466 L158.707657,71.8329466 L158.707657,59.8607889 L170.679814,59.8607889 L170.679814,47.8886311 L170.679814,47.8886311 Z M188.776843,192.111369 L188.776843,180.138792 L200.74942,180.138792 L200.74942,168.166215 L188.776843,168.166215 L188.776843,156.194896 L176.805523,156.194896 L176.805523,168.166215 L164.832947,168.166215 L164.832947,180.138792 L176.805523,180.138792 L176.805523,192.111369 L188.776843,192.111369 L188.776843,192.111369 Z M399.264082,126.12529 L387.291505,126.12529 L387.291505,138.097867 L375.320186,138.097867 L375.320186,150.070444 L387.291505,150.070444 L387.291505,162.041763 L399.264082,162.041763 L399.264082,150.070444 L411.236659,150.070444 L411.236659,138.097867 L399.264082,138.097867 L399.264082,126.12529 L399.264082,126.12529 Z" id="idea" fill="#F5A723"></path>
                </g>
            </g>
        </g>
    </g>
</svg>