<?xml version="1.0" encoding="UTF-8"?>
<svg width="574px" height="517px" viewBox="0 0 574 517" version="1.1" xmlns="http://www.w3.org/2000/svg" xmlns:xlink="http://www.w3.org/1999/xlink">
    <!-- Generator: Sketch 47.1 (45422) - http://www.bohemiancoding.com/sketch -->
    <title>695 copy</title>
    <desc>Created with Sketch.</desc>
    <defs></defs>
    <g id="Page-1" stroke="none" stroke-width="1" fill="none" fill-rule="evenodd">
        <g id="Desktop-HD-Copy" transform="translate(-123.000000, -209.000000)">
            <g id="Главная" transform="translate(127.000000, 209.000000)">
                <g id="695-copy">
                    <path d="M221,513 L364,513" id="Stroke-1" stroke="#9EA6C3" stroke-width="7" stroke-linecap="round"></path>
                    <path d="M153.855715,350.897536 L110.599381,174.73518 C109.952076,172.099393 107.310345,170.49141 104.699918,171.146023 C102.088482,171.798597 100.49698,174.465993 101.144285,177.1028 L144.400619,353.264137 C145.047924,355.900943 147.689655,357.507907 150.300082,356.854313 C152.911518,356.20072 154.50302,353.533323 153.855715,350.897536" id="Fill-5" fill="#595D71"></path>
                    <path d="M58.6080159,384.266178 L101.244635,212.750973 L101.244635,355.246842 C101.244635,357.973546 103.427887,360.183364 106.121812,360.183364 C108.814725,360.183364 111,357.973546 111,355.246842 L110.998989,133 L49.148942,381.856771 C48.4906293,384.501592 50.0762427,387.184283 52.6882577,387.849583 C55.3002726,388.514882 57.9517257,386.910999 58.6090271,384.267201 L58.6080159,384.266178" id="Fill-6" fill="#595D71"></path>
                    <path d="M0,497 L565.79011,497" id="Stroke-7" stroke="#9EA6C3" stroke-width="7" stroke-linecap="round"></path>
                    <path d="M66.986686,263 C66.986686,263 59.3014618,116.43069 59,113 L104.619163,163.964689 L102.438179,172.622317 C101.732718,173.61056 101.393317,174.851753 101.557378,176.119572 L79.831623,262.375307 L66.986686,263 M90.1633534,261.873505 L102.479194,212.986687 L102.479194,261.274414 L90.1633534,261.873505 M112.370011,260.794118 L112.370011,219.811199 L122.422838,260.305628 L112.370011,260.794118 M132.491046,259.816115 L112.370011,178.761716 L112.370011,172.624365 L188,257.117647 L132.491046,259.816115" id="Fill-9" fill="#66697D"></path>
                    <path d="M121.923464,261 L111.862322,220.359316 L111.862322,179.161573 L132,260.508719 L121.923464,261 M101.040745,176.509887 C100.876549,175.237488 101.21623,173.991813 101.922275,173 L101.040745,176.509887" id="Fill-10" fill="#232A43"></path>
                    <polyline id="Fill-11" fill="#232A43" points="79 261 103.377399 163 111 171.623543 111 259.425408 101.272839 259.9037 101.272839 211.817453 89.160779 260.500291 79 261"></polyline>
                    <polyline id="Fill-12" fill="#EAECEA" points="187 257 70.6244804 257 58 113 174.376545 113 187 257"></polyline>
                    <path d="M65.9902718,117.5 C66.1109872,118.881112 65.0942719,120 63.7185322,120 C62.3427925,120 61.1293942,118.881112 61.0097195,117.5 C60.889004,116.118888 61.90676,115 63.2824997,115 C64.6582394,115 65.870597,116.118888 65.9902718,117.5" id="Fill-13" fill="#12182F"></path>
                    <path d="M171.990433,117.5 C172.11009,118.881112 171.093523,120 169.716944,120 C168.342446,120 167.130265,118.881112 167.009568,117.5 C166.88991,116.118888 167.906477,115 169.282016,115 C170.657554,115 171.869735,116.118888 171.990433,117.5" id="Fill-14" fill="#12182F"></path>
                    <polyline id="Fill-15" fill="#DF9F52" points="97.0827894 190 95 167 103.141532 167 119 190 97.0827894 190"></polyline>
                    <polyline id="Fill-16" fill="#12182F" points="109 167 122.962268 190.688125 134 191 132.245278 167 109 167"></polyline>
                    <path d="M162.953669,179 C163.530855,185.627538 158.648225,191 152.046274,191 C145.444322,191 139.624529,185.627538 139.046323,179 C138.469136,172.372462 143.352786,167 149.954738,167 C156.55567,167 162.375463,172.372462 162.953669,179" id="Fill-17" fill="#C83739"></path>
                    <polyline id="Fill-18" fill="#12182F" points="160 200 99.2937513 200 99 196 159.706249 196 160 200"></polyline>
                    <path d="M505.851876,342.862647 L463.8281,174.756328 C463.165372,172.105617 460.460698,170.48853 457.788074,171.14685 C455.114416,171.803118 453.484995,174.485617 454.147723,177.137353 L496.172533,345.243672 C496.834227,347.894383 499.539935,349.51147 502.212559,348.85315 C504.886217,348.196882 506.515638,345.514383 505.851876,342.862647" id="Fill-60" fill="#595D71"></path>
                    <path d="M537,495 L499.412594,342 M459,361.403074 L459,492.430315" id="Stroke-61" stroke="#918A9E" stroke-width="9.646" stroke-linecap="round"></path>
                    <path d="M420.620178,347.475386 L454.232351,212.632502 L454.232351,362.070812 C454.232351,364.792443 456.418352,367 459.116682,367 C461.812986,367 464,364.792443 464,362.070812 L463.998987,133 L411.149193,345.069558 C410.490052,347.709428 412.076649,350.389157 414.691953,351.053468 C417.309282,351.717779 419.963061,350.115256 420.62119,347.475386 L420.620178,347.475386" id="Fill-62" fill="#595D71"></path>
                    <path d="M379,494 L416,347" id="Stroke-63" stroke="#918A9E" stroke-width="9.646" stroke-linecap="round"></path>
                    <path d="M526,262 L484.758345,260.395035 L464.394796,178.645094 L464.394796,177.019684 L520.839016,113 C520.839016,116.425628 526,262 526,262 M474.451783,259.993283 L464.394796,259.602776 L464.394796,219.621781 L474.451783,259.993283 M454.487761,259.216358 L442.870668,258.764514 L454.487761,212.809371 L454.487761,259.216358 M432.748977,258.37094 L394,256.862069 L448.855356,194.644648 L432.748977,258.37094" id="Fill-64" fill="#66697D"></path>
                    <polyline id="Fill-65" fill="#232A43" points="484 261 473.87744 260.597019 464 220.102027 464 179 484 261"></polyline>
                    <polyline id="Fill-66" fill="#232A43" points="464 260 454.295145 259.611631 454.295145 212.970365 442.91513 259.157506 433 258.761945 448.777684 194.713941 464 177 464 260"></polyline>
                    <polyline id="Fill-67" fill="#EAECEA" points="520 257 394 257 394.00102 113 520 113 520 257"></polyline>
                    <path d="M517,117.5 C517,118.881112 515.881345,120 514.500522,120 C513.118655,120 512,118.881112 512,117.5 C512,116.118888 513.118655,115 514.500522,115 C515.881345,115 517,116.118888 517,117.5" id="Fill-68" fill="#12182F"></path>
                    <polygon id="Fill-69" fill="#908D9A" points="409 155 504 155 504 142 409 142"></polygon>
                    <polyline id="Fill-70" fill="#DF9F52" points="412 150 412 144 414.228539 144 418 150 412 150"></polyline>
                    <polyline id="Fill-71" fill="#12182F" points="416 144 419.078523 149.921971 421.920957 150 422 144 416 144"></polyline>
                    <path d="M428,147.000512 C428,148.656992 426.656762,150 425,150 C423.343238,150 422,148.656992 422,147.000512 C422,145.343008 423.343238,144 425,144 C426.656762,144 428,145.343008 428,147.000512" id="Fill-72" fill="#C83739"></path>
                    <polyline id="Fill-73" fill="#12182F" points="428 151.828 412 151.828 412 151 428 151.001 428 151.828"></polyline>
                    <polygon id="Fill-74" fill="#12182F" points="409 177 441 177 441 159 409 159"></polygon>
                    <polygon id="Fill-75" fill="#908D9A" points="447 201 479 201 479 183 447 183"></polygon>
                    <polygon id="Fill-76" fill="#908D9A" points="484 177 504 177 504 159 484 159"></polygon>
                    <polyline id="Fill-77" fill="#C83739" points="504 201 484 200.99901 484 183 504 183 504 201"></polyline>
                    <polygon id="Fill-78" fill="#12182F" points="447 176 479 176 479 175 447 175"></polygon>
                    <polygon id="Fill-79" fill="#12182F" points="447 174 479 174 479 173 447 173"></polygon>
                    <polygon id="Fill-80" fill="#12182F" points="447 173 479 173 479 172 447 172"></polygon>
                    <polygon id="Fill-81" fill="#12182F" points="447 169 479 169 479 168 447 168"></polygon>
                    <polygon id="Fill-82" fill="#12182F" points="447 168 479 168 479 167 447 167"></polygon>
                    <polyline id="Fill-83" fill="#12182F" points="479 164 447 164 447 163 479 163.000766 479 164"></polyline>
                    <polygon id="Fill-84" fill="#12182F" points="447 163 479 163 479 162 447 162"></polygon>
                    <polygon id="Fill-85" fill="#12182F" points="447 160 479 160 479 159 447 159"></polygon>
                    <polygon id="Fill-86" fill="#C83739" points="409 223 441 223 441 205 409 205"></polygon>
                    <polygon id="Fill-87" fill="#908D9A" points="484 223 504 223 504 205 484 205"></polygon>
                    <polygon id="Fill-88" fill="#12182F" points="447 223 479 223 479 222 447 222"></polygon>
                    <polygon id="Fill-89" fill="#12182F" points="447 221 479 221 479 220 447 220"></polygon>
                    <polygon id="Fill-90" fill="#12182F" points="447 218 479 218 479 217 447 217"></polygon>
                    <polygon id="Fill-91" fill="#12182F" points="447 216 479 216 479 215 447 215"></polygon>
                    <polygon id="Fill-92" fill="#12182F" points="447 214 479 214 479 213 447 213"></polygon>
                    <polygon id="Fill-93" fill="#12182F" points="447 211 479 211 479 210 447 210"></polygon>
                    <polygon id="Fill-94" fill="#12182F" points="447 209 479 209 479 208 447 208"></polygon>
                    <polygon id="Fill-95" fill="#12182F" points="447 206 479 206 479 205 447 205"></polygon>
                    <polygon id="Fill-96" fill="#12182F" points="409 199 441 199 441 198 409 198"></polygon>
                    <polygon id="Fill-97" fill="#12182F" points="409 197 441 197 441 196 409 196"></polygon>
                    <polygon id="Fill-98" fill="#12182F" points="409 194 441 194 441 193 409 193"></polygon>
                    <polygon id="Fill-99" fill="#12182F" points="409 192 441 192 441 191 409 191"></polygon>
                    <polygon id="Fill-100" fill="#12182F" points="409 191 441 191 441 190 409 190"></polygon>
                    <polygon id="Fill-101" fill="#12182F" points="409 187 441 187 441 186 409 186"></polygon>
                    <polygon id="Fill-102" fill="#12182F" points="409 186 441 186 441 185 409 185"></polygon>
                    <polygon id="Fill-103" fill="#12182F" points="409 182 441 182 441 181 409 181"></polygon>
                    <path d="M402,117.5 C402,118.881112 400.881345,120 399.500522,120 C398.120744,120 397,118.881112 397,117.5 C397,116.118888 398.120744,115 399.500522,115 C400.881345,115 402,116.118888 402,117.5" id="Fill-104" fill="#12182F"></path>
                    <path d="M187.499755,294 L56.6204151,294 C50.8948248,294 45.8485073,289.327887 45.347937,283.562888 L28.040185,89.4371116 C27.5396147,83.6721128 31.7736477,79 37.499238,79 L168.378578,79 C174.104168,79 179.151501,83.6721128 179.652072,89.4371116 L196.959823,283.562888 C197.460394,289.327887 193.225346,294 187.499755,294" id="Fill-105" fill="#292929"></path>
                    <path d="M195.501581,294 L64.6195384,294 C58.8959494,294 53.8485906,289.327887 53.3480178,283.562888 L36.0401769,89.4371116 C35.539604,83.6721128 39.774674,79 45.4992785,79 L176.380306,79 C182.10491,79 187.152269,83.6721128 187.652842,89.4371116 L204.959668,283.562888 C205.461256,289.327887 201.226186,294 195.501581,294" id="Fill-106" fill="#F5A723"></path>
                    <path d="M59,113 C59.3014618,116.43069 66.986686,263 66.986686,263 L188,257.117647 L59,113" id="Fill-107" fill="#292929"></path>
                    <polyline id="Fill-108" fill="#FFFFFE" points="187 257 70.6244804 257 58 113 174.376545 113 187 257"></polyline>
                    <path d="M65.9902718,117.5 C66.1109872,118.881112 65.0942719,120 63.7185322,120 C62.3427925,120 61.1293942,118.881112 61.0097195,117.5 C60.889004,116.118888 61.90676,115 63.2824997,115 C64.6582394,115 65.870597,116.118888 65.9902718,117.5" id="Fill-109" fill="#12182F"></path>
                    <path d="M171.990433,117.5 C172.11009,118.881112 171.093523,120 169.716944,120 C168.342446,120 167.130265,118.881112 167.009568,117.5 C166.88991,116.118888 167.906477,115 169.282016,115 C170.657554,115 171.869735,116.118888 171.990433,117.5" id="Fill-110" fill="#12182F"></path>
                    <polyline id="Fill-111" fill="#F6C041" points="97.0827894 190 95 167 103.141532 167 119 190 97.0827894 190"></polyline>
                    <polyline id="Fill-112" fill="#3F5E9C" points="109 167 122.962268 190.688125 134 191 132.245278 167 109 167"></polyline>
                    <path d="M162.953669,179 C163.530855,185.627538 158.648225,191 152.046274,191 C145.444322,191 139.624529,185.627538 139.046323,179 C138.469136,172.372462 143.352786,167 149.954738,167 C156.55567,167 162.375463,172.372462 162.953669,179" id="Fill-113" fill="#292929"></path>
                    <polyline id="Fill-114" fill="#3F5E9C" points="158 202 97.2937416 201.998793 97 198 157.706258 198 158 202"></polyline>
                    <path d="M531.626497,295 L383.373503,294.998978 C377.644655,294.998978 373,290.329978 373,284.56882 L373,89.430158 C373,83.6690001 377.644655,79 383.374519,79 L531.626497,79 C537.356361,79 542,83.6690001 542,89.430158 L542,284.56882 C542,290.329978 537.355345,295 531.626497,295" id="Fill-157" fill="#F5A723"></path>
                    <path d="M520.839016,113 C520.839016,116.425628 526,262 526,262 L394,256.862069 L520.839016,113" id="Fill-158" fill="#292929"></path>
                    <polyline id="Fill-159" fill="#FFFFFE" points="520 257 394 257 394.00102 113 520 113 520 257"></polyline>
                    <path d="M517,117.5 C517,118.881112 515.881345,120 514.500522,120 C513.118655,120 512,118.881112 512,117.5 C512,116.118888 513.118655,115 514.500522,115 C515.881345,115 517,116.118888 517,117.5" id="Fill-160" fill="#12182F"></path>
                    <polygon id="Fill-161" fill="#547AAF" points="409 151 504 151 504 138 409 138"></polygon>
                    <polyline id="Fill-162" fill="#F5BA5D" points="411 148 411 142 413.228539 142 417 148 411 148"></polyline>
                    <polyline id="Fill-163" fill="#FFFFFE" points="416 142 419.079057 147.921971 421.920943 148 422 142 416 142"></polyline>
                    <path d="M428,144 C428,145.656762 426.657787,147 425,147 C423.343238,147 422,145.656762 422,144 C422,142.343238 423.343238,141 425,141 C426.657787,141 428,142.343238 428,144" id="Fill-164" fill="#DE4A4C"></path>
                    <polygon id="Fill-165" fill="#FFFFFE" points="412 148.828 428 148.828 428 148 412 148"></polygon>
                    <polygon id="Fill-166" fill="#292929" points="409 177 441 177 441 159 409 159"></polygon>
                    <polygon id="Fill-167" fill="#F5A723" points="447 201 479 201 479 183 447 183"></polygon>
                    <polygon id="Fill-168" fill="#F5A723" points="484 177 504 177 504 159 484 159"></polygon>
                    <polyline id="Fill-169" fill="#4A90E2" points="504 201 484 200.99901 484 183 504 183 504 201"></polyline>
                    <polygon id="Fill-170" fill="#12182F" points="447 174 479 174 479 173 447 173"></polygon>
                    <polygon id="Fill-171" fill="#12182F" points="447 169 479 169 479 168 447 168"></polygon>
                    <polyline id="Fill-172" fill="#12182F" points="479 164 447 164 447 163 479 163.000766 479 164"></polyline>
                    <polygon id="Fill-173" fill="#12182F" points="447 160 479 160 479 159 447 159"></polygon>
                    <polygon id="Fill-174" fill="#4A90E2" points="409 223 441 223 441 205 409 205"></polygon>
                    <polygon id="Fill-175" fill="#F5A723" points="484 223 504 223 504 205 484 205"></polygon>
                    <polygon id="Fill-176" fill="#12182F" points="447 221 479 221 479 220 447 220"></polygon>
                    <polygon id="Fill-177" fill="#12182F" points="447 216 479 216 479 215 447 215"></polygon>
                    <polygon id="Fill-178" fill="#12182F" points="447 211 479 211 479 210 447 210"></polygon>
                    <polygon id="Fill-179" fill="#12182F" points="447 206 479 206 479 205 447 205"></polygon>
                    <polygon id="Fill-180" fill="#12182F" points="409 197 441 197 441 196 409 196"></polygon>
                    <polygon id="Fill-181" fill="#12182F" points="409 192 441 192 441 191 409 191"></polygon>
                    <polygon id="Fill-182" fill="#12182F" points="409 187 441 187 441 186 409 186"></polygon>
                    <polygon id="Fill-183" fill="#12182F" points="409 182 441 182 441 181 409 181"></polygon>
                    <path d="M402,117.5 C402,118.881112 400.881345,120 399.500522,120 C398.120744,120 397,118.881112 397,117.5 C397,116.118888 398.120744,115 399.500522,115 C400.881345,115 402,116.118888 402,117.5" id="Fill-184" fill="#12182F"></path>
                    <path d="M185,495 L149.417353,352 M106.509259,355.125488 L106.509259,492.446957 M26,492.149 L53.6007459,382.855902" id="Stroke-185" stroke="#918A9E" stroke-width="9.646" stroke-linecap="round"></path>
                    <path d="M411.624815,148.280754 L424.086602,136.899196 C425.219122,135.863853 425.311552,134.07647 424.29076,132.926776 C423.269968,131.777082 421.508721,131.684365 420.37417,132.719708 L407.913398,144.101266 C406.780878,145.136609 406.688448,146.923992 407.70924,148.072656 C408.730032,149.22235 410.491279,149.316097 411.624815,148.280754" id="Fill-186" fill="#EBA38B"></path>
                    <path d="M403.046131,154.558969 L410.685818,140.01047 C411.380335,138.687788 410.884252,137.026444 409.583629,136.320148 C408.283005,135.612853 406.649368,136.11735 405.954851,137.441031 L398.314182,151.98953 C397.619665,153.312212 398.115748,154.973556 399.416371,155.679852 C400.717977,156.387147 402.351614,155.88265 403.046131,154.558969" id="Fill-187" fill="#EBA38B"></path>
                    <path d="M414.388319,154.365218 L429.048074,141.815518 C430.174091,140.851155 430.322921,139.121299 429.378046,137.972059 C428.433171,136.82182 426.738272,136.67092 425.612255,137.634283 L410.9525,150.183983 C409.826483,151.148346 409.676674,152.878202 410.621549,154.028441 C411.567403,155.177681 413.262302,155.329581 414.388319,154.365218" id="Fill-188" fill="#EBA38B"></path>
                    <path d="M414.387208,161.365319 L429.048066,148.815906 C430.174092,147.851566 430.322923,146.12175 429.378041,144.971537 C428.433158,143.822323 426.738244,143.670427 425.611239,144.634767 L410.95136,157.18418 C409.825334,158.14852 409.677482,159.878337 410.622365,161.02755 C411.566268,162.177763 413.261182,162.32966 414.387208,161.365319" id="Fill-189" fill="#EBA38B"></path>
                    <path d="M411.424313,141 C411.251953,141.141094 409.095936,142.464887 406.755463,143.892425 C402.713561,146.356382 399.299615,149.776872 396.795853,153.867558 L392,161.701383 C392,161.701383 403.154037,171.298882 403.72958,170.992833 C413.207387,165.933163 420,157.122056 420,157.122056 L411.424313,141" id="Fill-190" fill="#EBA38B"></path>
                    <polyline id="Fill-191" fill="#FFFFFE" points="389 158.359315 395.719049 153 411 172.591392 402.23737 178 389 158.359315"></polyline>
                    <path d="M407,176.554067 C407,176.554067 366.665293,207.930794 366.53433,208.041973 C354.321985,217.881311 336.14364,220.545564 323.350144,211.310634 C321.432757,209.925951 317.06799,205.752697 315.326585,203.764614 C313.137039,201.262077 294,166.283151 294,166.283151 L309.587724,131 C309.587724,131 331.656094,176.864357 333.010748,179.367906 C335.33228,183.655371 339.624404,187.409177 341.961283,187.761918 C346.042637,188.431013 348.428628,187.73665 351.722155,185.87794 C367.957535,176.747114 390.682768,155.218823 390.682768,155.218823 L407,176.554067" id="Fill-192" fill="#326299"></path>
                    <path d="M291.890785,466.599447 C291.748218,468.499355 291,495.625238 291,495.625238 L311,496 L310.555648,462 L291.890785,466.599447" id="Fill-193" fill="#45172D"></path>
                    <path d="M282.015389,286 C281.983096,286.223613 282.00227,287.456039 282.066856,289.567602 C283.01748,320.466053 288.367013,489 288.367013,489 L313.382968,488.140263 L320,290.842912 L282.015389,286" id="Fill-194" fill="#292929"></path>
                    <path d="M288,510.62681 L340.313599,510.99985 C343.43378,511.022213 345.978214,508.533921 345.999882,505.442868 C346.015359,503.062321 344.509954,500.931822 342.246171,500.130853 L316.423161,491 L288.127944,491.482818 L288,510.62681" id="Fill-195" fill="#CF8E1F"></path>
                    <path d="M342.244335,512.987069 L290.003054,513 L290,509.012931 L345.999998,509 L345.999998,509.008621 C346.002034,511.205819 344.319163,512.987069 342.244335,512.987069" id="Fill-196" fill="#0F1126"></path>
                    <path d="M316,498.564318 L322.245669,492 M320.581627,500.461223 L326.827297,493.896905 M324.969029,503 L332,495.555928" id="Stroke-197" stroke="#0F1126" stroke-width="1.221" stroke-linecap="round"></path>
                    <path d="M246.378752,465.644731 C246.270537,467.435196 246,492.984181 246,492.984181 L266,493 L264.959471,461 L246.378752,465.644731" id="Fill-198" fill="#45172D"></path>
                    <path d="M234.009294,287 C233.980083,287.222958 234.020373,288.45025 234.121099,290.550965 C235.606803,321.297699 243.875374,489 243.875374,489 L268.825126,487.694979 L272,291.139042 L234.009294,287" id="Fill-199" fill="#292929"></path>
                    <path d="M245,510.911988 L297.147292,512.995553 C300.257829,513.120056 302.876362,510.615096 302.99576,507.399297 C303.088397,504.924132 301.655615,502.658601 299.425128,501.753027 L273.972662,491.416075 L245.744182,491 L245,510.911988" id="Fill-200" fill="#F5A723"></path>
                    <path d="M297.146588,513.99795 L245,512.176981 L245.116893,508 L301,509.951606 C300.935963,512.258771 299.210009,514.069516 297.146588,513.99795" id="Fill-201" fill="#0F1126"></path>
                    <path d="M272,500.32331 L278.420462,494 M276.492235,502.345746 L282.912697,496.022435 M280.770455,505 L288,497.828803" id="Stroke-202" stroke="#0F1126" stroke-width="1.217" stroke-linecap="round"></path>
                    <path d="M322.889139,280.930826 C323.438216,286.496989 321.919755,291.791508 318.953914,296.0863 C315.161883,301.594902 308.96751,305.467586 301.677043,306.157297 L262.219721,309.894665 C261.047395,310.005746 259.890521,310.028972 258.75013,309.964343 C255.815195,309.835085 252.999758,309.150423 250.420228,308.024466 C249.960776,307.833609 249.510594,307.616496 249.071744,307.386256 C242.2397,303.896296 237.282554,297.19004 236.486237,289.114459 L236,276.772361 L320.922557,268 L322.889139,280.930826" id="Fill-203" fill="#1F202B"></path>
                    <path d="M276.332991,133.190602 L272.697007,133.823287 C266.35364,134.927703 260.243454,130.738818 259.117785,124.515216 L252.180113,86.1319478 C251.054444,79.9083454 255.323939,73.9135222 261.667307,72.8091061 L265.302259,72.1764204 C271.645626,71.0730166 277.756844,75.2619019 278.881481,81.4844919 L285.820185,119.868772 C286.944822,126.092375 282.675327,132.087198 276.332991,133.190602" id="Fill-204" fill="#EBA38B"></path>
                    <path d="M311.762334,37.879713 C311.82906,38.5042529 311.88244,39.1308372 311.923502,39.7594657 C312.102122,42.7860821 311.967644,45.7820337 311.523147,48.6808801 C309.639424,61.088883 302.290336,71.9421803 291.750723,78.3960999 C286.518386,81.605683 280.496631,83.723599 273.971864,84.4115128 C263.410694,85.5246453 255.115125,91.1598146 247.040265,85.5573544 C244.437955,83.7532416 242.040955,81.682345 239.913939,79.3518197 C239.077299,78.4328977 238.277615,77.4976211 237.526178,76.5183916 C232.938516,70.5489759 228.091136,54.798509 227.239098,46.7837507 C224.839019,24.1796996 240.773163,3.85199927 263.109915,0.478870537 C263.74843,0.385853957 264.387972,0.30612546 265.028541,0.238662885 C279.256555,-1.26084616 292.574018,4.40907659 301.379784,14.3352745 L301.394156,14.3465183 C303.971828,17.2627414 306.162491,20.5551195 307.87786,24.1306359 C309.894009,28.3450025 311.240845,32.9784548 311.762334,37.879713" id="Fill-205" fill="#292929"></path>
                    <path d="M258.941953,55.8491583 C259.057457,56.8077954 259.001295,57.7578636 258.767108,58.6608033 C258.510669,59.740475 258.036998,60.9240436 257.355632,61.8141301 C256.115822,63.4132866 254.312269,64.7039656 252.156907,64.9706702 L247.529342,65.5490657 L243.980517,66 L242.649576,55.3532377 L242.661232,55.3510955 L242.407972,53.3834796 L242.218291,51.8550158 L242.050864,50.4550844 L242,50.0930516 L242.013776,50.0909094 L250.178509,49.0637218 C252.24168,48.7991594 254.215839,49.3732705 255.776728,50.5097106 C256.724071,51.200572 257.514582,52.1185071 258.078325,53.169259 C258.537161,53.9875816 258.823271,54.8765969 258.941953,55.8491583" id="Fill-206" fill="#F3BEB4"></path>
                    <path d="M311.372472,42.6268482 L313.424214,59.2363412 L313.734528,61.7223405 C313.944806,63.3579752 314.019322,65.0060089 313.995844,66.6065131 C313.753922,81.6464994 303.792252,94.9454595 289.49232,99.4028998 C289.065639,99.5558208 288.618543,99.6746445 288.182675,99.7790028 C286.644378,100.221234 285.069334,100.516743 283.44121,100.732692 C281.862083,100.939342 280.309495,101.012703 278.754866,100.998238 C275.723187,100.980672 272.758878,100.554973 269.932373,99.77177 L269.905833,99.763504 C257.598439,96.3651449 247.759261,86.3033569 245.049123,73.286474 C244.967462,72.8928058 244.887842,72.5105033 244.831699,72.1127021 C244.72656,71.6580721 244.668377,71.1838104 244.610193,70.7085154 L244.567321,70.4615686 L244.42033,69.3373927 L244.066124,66.3740318 L242.789144,56.2047858 L242.78404,56.1035273 L242.780977,56.0911283 L242.551305,54.2033807 L242.368587,52.728933 L242.207306,51.3784753 L242.171579,51.0271703 C241.898014,48.6744602 241.968447,46.3372488 242.263448,44.0609991 C242.45127,42.468761 242.755458,40.894088 243.133142,39.3700444 C243.176015,39.1189646 243.227053,38.9061151 243.28932,38.6777669 C243.599633,37.4213349 243.995691,36.1618033 244.452995,34.9560006 L244.461161,34.9281028 C246.192383,30.3260075 248.87598,26.1258465 252.302697,22.6365614 C252.988653,21.9391177 253.70319,21.2613057 254.436101,20.6196575 C259.554229,16.1994142 265.941172,13.1750916 273.077357,12.2771974 C282.622554,11.0744944 291.854376,13.8498038 298.914004,19.352893 C302.696968,22.2883562 305.497955,26.0266545 307.812035,30.3001763 C308.703165,31.9285782 309.394224,33.6437731 309.92094,35.4271625 C310.613021,37.7168444 311.072366,40.1253501 311.372472,42.6268482" id="Fill-207" fill="#F4C2AA"></path>
                    <path d="M245.967864,55 L247.185003,65.502037 L248,72.5939116 L245.421611,72.945453 C245.231738,72.9675559 245.043811,72.9917639 244.861727,72.9865013 C240.511184,73.2485786 236.612442,69.6626455 236.064242,65.0052479 C235.776024,62.5886637 236.476122,60.3973187 237.792581,58.583828 C238.970772,56.9661059 240.697162,55.8925363 242.701061,55.4831063 L242.711772,55.4810013 C242.941568,55.4104825 243.139231,55.3725918 243.377791,55.3536465 L245.967864,55" id="Fill-208" fill="#F3BEB4"></path>
                    <path d="M283,100.551239 C283,100.551239 276.918453,102.058263 270.379918,99.54896 L270.353218,99.5407193 C257.971386,96.1527486 248.072698,86.1217182 245.346169,73.1446264 C240.757795,73.4011192 236.645922,69.8915977 236.067754,65.3334431 C235.76378,62.9683532 236.50215,60.8237028 237.890575,59.0488553 C239.133174,57.4656048 240.953941,56.4149115 243.067386,56.0142059 L243.064306,56.0018448 L242.833244,54.1198678 L242.649421,52.6499273 L242.487165,51.3035978 L242.437871,50.9554269 L242.451222,50.9533668 C242.176001,48.6078486 242.24686,46.2777818 242.543646,44.0084903 C246.735621,40.5751956 251.387665,39.2381369 255.115462,44.5987327 C255.115462,44.5987327 255.312635,47.2893315 255.789136,51.3561325 C256.138296,54.4010828 256.634308,58.2103609 257.319278,62.2277174 C258.702568,70.4890507 260.82731,79.6239015 263.93278,84.8402845 C270.548336,95.9786631 283,100.551239 283,100.551239" id="Fill-209" fill="#EBA38B"></path>
                    <path d="M308.237171,45.0036424 L296.507871,46.9690665 C295.351336,47.1626785 294.238005,46.4269527 294.033064,45.3353993 C293.827014,44.2427993 294.605792,43.1899683 295.762327,42.9963563 L307.491628,41.0309322 C308.648162,40.8373202 309.761493,41.573046 309.967542,42.665646 C310.171376,43.7571994 309.393706,44.8100303 308.237171,45.0036424" id="Fill-210" fill="#292929"></path>
                    <path d="M282.237989,48.0036545 L270.508663,49.9690679 C269.352125,50.1626789 268.237684,49.4269571 268.032742,48.3343631 C267.8278,47.2428156 268.60658,46.1899903 269.763117,45.9963793 L281.492444,44.0309659 C282.647873,43.8373549 283.761207,44.5720302 283.967256,45.6646242 C284.172198,46.7572183 283.393419,47.8100435 282.237989,48.0036545" id="Fill-211" fill="#292929"></path>
                    <path d="M287,76.1366562 C289.102568,78.660033 291.538445,79.2768849 294.11832,78.897009 C297.193627,78.4421104 300.391786,76.1080762 301,73 L287,76.1366562" id="Fill-212" fill="#FFFFFE"></path>
                    <path d="M297,64.2026085 L296.81197,64.2318417 C297.041987,65.899108 295.913809,67.4708792 292.563959,68 L290,55 C294.355718,59.1452665 296.304473,61.5365415 297,64.2026085" id="Fill-213" fill="#EBA38B"></path>
                    <path d="M237.990281,300 C237.990281,300 272.509207,296.205796 272.093094,294.940022 C271.676981,293.675287 271.676981,278.915199 271.676981,278.915199 C271.676981,278.915199 299.126087,274.277146 299.126087,275.963805 C299.126087,277.650465 301.620715,290.722854 301.620715,290.722854 L322,286.927611 L321.583887,265 L233,274.277146 L237.990281,300" id="Fill-214" fill="#0F121F"></path>
                    <polyline id="Fill-215" fill="#FFFFFE" points="305 267.902925 264.005641 272 250 104.70635 262.640183 104.024014 274.596616 135.263571 277.224459 103.93222 287.919527 103 305 267.902925"></polyline>
                    <path d="M304.497547,267 L288,113 L289.847252,113.696662 L294.929835,165.102755 L294.1466,166.83676 C294.1466,166.83676 294.571996,167.597682 295.305619,168.903285 L305,266.95002 L304.497547,267" id="Fill-216" fill="#E9E8E7"></path>
                    <path d="M295,169 C294.367031,167.625872 294,166.825013 294,166.825013 L294.675774,165 L295,169" id="Fill-217" fill="#9A483E"></path>
                    <path d="M305,272 L297.193368,271.460911 C297.193368,271.460911 297.126321,270.542741 297,268.839562 L304.198348,268.043814 L304.105065,267.05262 L304.567594,267 L305,272" id="Fill-218" fill="#0F121F"></path>
                    <path d="M296.502404,267 C294.877992,246.988529 284,112.838275 284,110 L288.084814,111.603402 L303.902839,265.305993 L304,266.245638 L296.502404,267" id="Fill-219" fill="#E9E9E7"></path>
                    <polyline id="Fill-220" fill="#0F121F" points="264.125184 273 264 271.251386 266 271 264.125184 273"></polyline>
                    <polyline id="Fill-221" fill="#E9E9E7" points="264.40683 271 250 110.112551 252.962344 110 269 269.186907 267.190818 270.721692 264.40683 271"></polyline>
                    <path d="M267,289.483604 C267,289.483604 262.635999,290.902213 255.478328,292.156033 C252.977468,292.587961 250.131697,292.999419 247.012916,293.327971 C242.639536,293.78037 237.721177,294.067981 232.446446,293.986099 C232.122376,293.986099 231.819147,293.872487 231.526338,293.78037 L223.008824,183.62535 C222.90358,182.761493 222.808755,181.908896 222.714973,181.08598 C220.821613,164.249989 221.408273,154.691272 221.176944,140.187898 C221.135263,138.100927 221.093582,135.902392 221.01022,133.578986 C220.957077,132.191084 221.11338,130.896322 221.428072,129.662972 C223.081766,123.197354 229.307866,118.684625 236.120627,115.324386 C240.222038,113.310086 244.533938,111.695984 248.174774,110.349023 C249.184496,109.969294 249.229303,110.009212 249.484599,110.049129 C249.658617,110.076765 249.929544,110.103376 250.666256,110 L267,289.483604" id="Fill-222" fill="#4A90E2"></path>
                    <path d="M328,282.922415 L321.047428,283.556012 L305.077225,285 C305.077225,285 286.45927,109.40471 288.102738,110.001518 C290.891718,111.021405 293.8962,112.60131 296.850468,114.666632 C302.912784,118.88414 308.758552,125.141421 312.030843,132.754805 C312.973405,134.920277 313.698373,137.208379 314.14507,139.58539 L314.208883,139.858246 C316.984263,154.861211 328,282.922415 328,282.922415" id="Fill-223" fill="#4A90E2"></path>
                    <path d="M276.992062,144.824165 C277.089649,145.924545 276.276095,146.895468 275.176751,146.992062 C274.075416,147.089652 273.105524,146.276069 273.007938,145.176685 C272.910351,144.076306 273.723905,143.105383 274.824244,143.007793 C275.924584,142.911198 276.894476,143.723786 276.992062,144.824165" id="Fill-224" fill="#908D9A"></path>
                    <path d="M278.992054,164.823315 C279.08964,165.923694 278.277084,166.894617 277.175751,166.992207 C276.07641,167.088802 275.104528,166.276214 275.007938,165.175835 C274.910351,164.075455 275.723903,163.104532 276.824241,163.007938 C277.924578,162.910348 278.895463,163.723931 278.992054,164.823315" id="Fill-225" fill="#908D9A"></path>
                    <path d="M279.992207,186.824244 C280.088802,187.924584 279.276215,188.894476 278.175838,188.992062 C277.075461,189.089649 276.104541,188.276095 276.007946,187.175756 C275.910356,186.075416 276.722943,185.105524 277.823319,185.007938 C278.923696,184.910351 279.894617,185.723905 279.992207,186.824244" id="Fill-226" fill="#908D9A"></path>
                    <path d="M282.992218,206.824165 C283.088788,207.924545 282.275405,208.895468 281.176293,208.992062 C280.076185,209.089652 279.104506,208.276069 279.007936,207.176685 C278.91037,206.076306 279.723753,205.105383 280.82386,205.007793 C281.922973,204.911198 282.894651,205.723786 282.992218,206.824165" id="Fill-227" fill="#908D9A"></path>
                    <path d="M283.992062,227.823773 C284.089649,228.923921 283.276095,229.894639 282.175756,229.992209 C281.075416,230.088783 280.105524,229.276366 280.007938,228.176219 C279.910351,227.076071 280.723905,226.105352 281.823249,226.007783 C282.924584,225.911209 283.894476,226.724621 283.992062,227.823773" id="Fill-228" fill="#908D9A"></path>
                    <path d="M240.882458,51.6876395 L242.565649,59.7969498 C242.92779,61.5369715 244.829285,62.4889252 246.455349,61.7443578 C247.242878,61.3842138 247.814143,60.6861819 248.002864,59.8465202 C248.84548,56.0994038 251.40903,45.3092461 254.199046,39.4963597 C257.614393,32.3855386 265.810001,32.046639 265.810001,32.046639 L276.705855,34.6546483 C280.146705,35.4781236 282.947942,31.8746601 281.270872,28.7840984 L280.835283,27.9828791 L294.85473,31.1918028 C297.891614,31.8867998 299.79515,28.9348328 298.860724,25.9859007 L298.933152,25.9515049 C299.487075,26.1336002 307.017568,26.3167072 313.824799,26.4461972 C317.710419,26.5200469 319.492561,21.6955333 316.492401,19.2463516 C308.064206,12.3661845 294.717015,2.91847382 283.226434,1.23004581 C264.785805,-1.47912748 241.224197,20.5331584 239.516523,25.6126054 C237.80885,30.6920524 240.882458,51.6876395 240.882458,51.6876395" id="Fill-229" fill="#292929"></path>
                    <path d="M278.722857,59.9698779 L278.722857,59.9698779 C277.855004,60.1286898 276.997335,59.6434314 276.815165,58.8934868 L276.034437,55.6819589 C275.852267,54.9310339 276.411223,54.1879515 277.276813,54.03012 C278.143534,53.8713082 279.002335,54.3565665 279.184505,55.1074915 L279.965233,58.318039 C280.148534,59.068964 279.588447,59.8120465 278.722857,59.9698779" id="Fill-230" fill="#0F1126"></path>
                    <path d="M302.722312,54.9701679 L302.722312,54.9701679 C301.856894,55.1279898 300.998263,54.6437412 300.81613,53.8928618 L300.034425,50.6825093 C299.852292,49.9316298 300.411137,49.1885925 301.278817,49.0297904 C302.144235,48.8719684 303.001734,49.3571973 303.184999,50.1070964 L303.965572,53.3184292 C304.147706,54.0683284 303.588861,54.812346 302.722312,54.9701679" id="Fill-231" fill="#0F1126"></path>
                    <path d="M240.553317,293.113289 C236.244859,293.562504 237.011514,294.072699 231.816324,293.991393 C231.497141,293.991393 231.198484,293.878581 230.91009,293.787112 L222.001703,180.504599 C221.898046,179.647838 226.560581,172.816108 226.467186,172 C229.982304,184.308699 243.624042,292.787049 240.553317,293.113289" id="Fill-232" fill="#326299"></path>
                    <path d="M235.711563,280.077748 L255.119632,287.794625 C256.537025,288.357659 258.184644,287.722708 258.78123,286.382782 C259.378817,285.037178 258.71016,283.488125 257.286761,282.922252 L237.878693,275.205375 C236.4613,274.642341 234.813681,275.277292 234.217095,276.617218 C233.62151,277.957144 234.294171,279.513768 235.711563,280.077748" id="Fill-233" fill="#F4C2AA"></path>
                    <polyline id="Fill-234" fill="#7D7A74" points="305 307.066605 249.41989 354 216 314.933395 271.58011 268 305 307.066605"></polyline>
                    <polyline id="Fill-235" fill="#FFFFFE" points="305 313.485854 243.823658 353 216 309.514146 277.176342 270 305 313.485854"></polyline>
                    <path d="M231.19145,299 C227.679654,294.968755 223.781205,288.821313 227.524461,284.342608 C227.67788,284.158903 228.782854,282.746736 230.145892,281 L231.030936,294.151833 C231.280132,294.244199 231.538195,294.358116 231.813996,294.358116 C231.836166,294.358116 231.85745,294.358116 231.87962,294.359142 C232.37269,294.367353 232.862213,294.371458 233.348189,294.371458 C233.549497,294.371458 233.749918,294.371458 233.950338,294.369405 C233.966301,294.747078 233.98315,295.13604 234,295.534238 C233.525553,295.686128 233.082144,296.008381 232.734512,296.496893 C232.357614,297.024403 232.147439,297.667883 232.099551,298.324705 L231.19145,299" id="Fill-236" fill="#BAB8B3"></path>
                    <path d="M237.663185,295 C237.348999,294.874525 237.013925,294.812167 236.679721,294.812167 C236.467363,294.812167 236.255004,294.837262 236.048738,294.887452 C236.032202,294.592395 236.015666,294.304183 236,294.024335 C236.612707,294.021293 237.218451,294.012928 237.817232,294 L238,294.810646 L237.663185,295" id="Fill-237" fill="#4F4D51"></path>
                    <path d="M237.212982,295 L237,294.058304 C237.674442,294.043286 238.341785,294.023852 239,294 L237.212982,295" id="Fill-238" fill="#41404A"></path>
                    <path d="M233.698769,294 C233.136616,294 232.57036,293.995891 232,293.987672 C232.343652,293.992809 232.660632,293.994863 232.95607,293.994863 C236.635711,293.994863 236.69008,293.607568 239.606505,293.223354 L238.560162,293.897269 C237.8944,293.925006 237.219406,293.947607 236.537231,293.965071 C235.831463,293.982536 235.117487,293.993836 234.395305,293.997945 C234.163469,294 233.931632,294 233.698769,294 M240.98419,292.336786 C241.211924,290.829723 241.104212,287.165311 240.74825,282 L249,285.476415 C248.883056,285.461005 248.76406,285.452787 248.644038,285.452787 C247.657193,285.452787 246.588281,285.962332 245.785059,286.922866 C245.046464,287.805325 244.680244,288.892218 244.699734,289.888708 L244.43302,290.116771 L240.98419,292.336786" id="Fill-239" fill="#A3735F"></path>
                    <path d="M233.932425,294 C233.639894,294 233.326032,293.998033 232.985761,293.993116 C232.960367,293.992132 232.93599,293.992132 232.910596,293.992132 C232.594703,293.992132 232.299124,293.882966 232.013703,293.794453 L231,281.191188 C232.313345,279.781865 233.836946,278.144375 235.098488,276.789142 C235.088331,276.811762 235.077158,276.834382 235.067,276.857986 C234.462638,278.25059 235.145212,279.868411 236.583492,280.454563 L241.647943,282.516916 C242.000403,287.461841 242.107055,290.969906 241.881562,292.412667 L240.517431,293.261408 C237.629698,293.629229 237.575864,294 233.932425,294 M239.623585,275.732887 L238.782557,275.390637 C238.426034,275.246066 238.055291,275.177223 237.690642,275.177223 C237.178712,275.177223 236.676939,275.311959 236.241189,275.560779 C237.114721,274.621558 237.691658,274 237.691658,274 L239.623585,275.732887" id="Fill-240" fill="#92635A"></path>
                    <path d="M250,286 C249.85441,285.95676 249.703545,285.925587 249.55057,285.907487 L241.064153,282.504617 L235.803925,280.395923 C234.310045,279.796599 233.601085,278.142426 234.22881,276.71853 C234.23936,276.694396 234.250965,276.671268 234.261515,276.64814 C234.69301,276.191608 235.09391,275.767255 235.44839,275.392175 C235.900985,275.137764 236.422154,275 236.953874,275 C237.332619,275 237.717694,275.07039 238.087999,275.21821 L238.961539,275.568151 L244.498177,280.461285 C246.391901,282.13557 248.259251,284.02002 250,286" id="Fill-241" fill="#B89C8E"></path>
                    <path d="M245,291.222 L245.26,291 C245.261,291.017 245.261,291.035 245.262,291.053 L245,291.222" id="Fill-242" fill="#7D7A74"></path>
                    <path d="M246.65381,305 L237.773647,296.61577 C237.535066,296.391879 237.27064,296.21666 236.992296,296.091086 L237.377007,295.8487 L239.128585,294.746767 L240.142552,294.108191 L244.819723,291.164511 L245.080173,291 C245.106019,291.752468 245.372434,292.44653 245.885382,292.940064 L252,298.816715 C251.760425,299.131136 251.512898,299.448477 251.258412,299.765818 L248.490879,297.152135 C247.947115,296.639132 247.265172,296.387012 246.586212,296.387012 C245.796908,296.387012 245.009593,296.727715 244.445947,297.396468 C243.397187,298.640523 243.500572,300.566959 244.676574,301.676679 L247.37651,304.226116 C247.119042,304.503546 246.876485,304.762481 246.65381,305 M233.555743,300.670143 C233.060689,300.234043 232.533824,299.753164 232,299.234321 L233.017943,298.593798 C232.954322,299.31901 233.136239,300.063691 233.555743,300.670143" id="Fill-243" fill="#BAB8B3"></path>
                    <path d="M245.000755,290 C244.980838,289.101436 245.355074,288.121352 246.109835,287.325614 C246.930638,286.459472 248.022945,286 249.03139,286 C249.154038,286 249.275639,286.007411 249.395143,286.021306 L250,286.245484 L245.000755,290" id="Fill-244" fill="#A3735F"></path>
                    <path d="M250.577,286.242 L250,286 C250.145,286.018 250.288,286.049 250.426,286.092 C250.503,286.117 250.579,286.145 250.654,286.177 L250.577,286.242" id="Fill-245" fill="#B89C8E"></path>
                    <path d="M245.00213,291 C245.001065,290.982738 245.001065,290.965476 245,290.949173 L250.077906,287.062335 L250.159894,287 C250.439929,287.107408 250.699734,287.261808 250.929725,287.465116 L251,287.527451 L245.00213,291" id="Fill-246" fill="#7D7A74"></path>
                    <path d="M264.058333,310 C263.398251,310 262.774043,309.768551 262.291281,309.286886 L245.830227,292.852953 C245.301342,292.324373 245.026649,291.581025 245,290.775124 L250.773668,287 L267.167074,303.365124 C268.369366,304.566157 268.256619,306.879607 266.915955,308.508091 C266.113402,309.482888 265.044356,310 264.058333,310" id="Fill-247" fill="#BAB8B3"></path>
                    <path d="M260.083018,316 C259.391241,316 258.696426,315.736646 258.142397,315.202847 L244.972311,302.504105 C243.774109,301.349398 243.668773,299.344866 244.737329,298.050379 C245.311615,297.354515 246.113792,297 246.917995,297 C247.609772,297 248.304587,297.262341 248.858615,297.79614 L262.027689,310.494882 C263.225891,311.64959 263.331227,313.654121 262.262671,314.948609 C261.688385,315.644472 260.88722,316 260.083018,316" id="Fill-248" fill="#BAB8B3"></path>
                    <path d="M252.003134,319 C251.291509,318.998943 250.577804,318.725172 250.008713,318.168116 L233.998204,302.482823 C233.837984,302.326383 233.697532,302.155143 233.575807,301.972277 C233.136764,301.313746 232.946373,300.505117 233.012958,299.717628 L235.309091,298.2177 L237.172423,297 C237.463731,297.136357 237.740474,297.326623 237.990167,297.56974 L254.000676,313.255033 C255.231453,314.460049 255.340694,316.551915 254.243086,317.902801 C253.652147,318.628982 252.829201,319 252.003134,319" id="Fill-249" fill="#BAB8B3"></path>
                    <path d="M233,299 C233.048935,298.529239 233.263706,298.06804 233.648845,297.68996 C234.004078,297.339831 234.457182,297.108864 234.942003,297 C234.961033,297.309673 234.980063,297.628172 235,297.956234 L233,299" id="Fill-250" fill="#BAB8B3"></path>
                    <path d="M236.069003,296 C236.045283,295.681201 236.022642,295.371694 236,295.070765 C236.255526,295.023588 236.518598,295 236.781671,295 C237.195687,295 237.610782,295.058613 238,295.176555 L236.069003,296" id="Fill-251" fill="#4F4D51"></path>
                    <path d="M244.7419,303.51715 C244.832815,303.307636 255.409272,293.379084 253.841492,291.057134 C251.231218,287.18925 247.684519,283.203387 244.027712,280.045412 L237.028259,274 C237.028259,274 228.163027,283.17796 227.683198,283.640723 C221.009019,290.06855 236.337305,300.36121 236.337305,300.36121 C236.337305,300.36121 242.704392,308.178342 244.7419,303.51715" id="Fill-252" fill="#F4C2AA"></path>
                    <path d="M244.961786,290.977439 L261.192646,305.279108 C262.377697,306.323927 264.213182,306.220773 265.270008,305.049309 C266.327868,303.878866 266.223426,302.067028 265.038375,301.022209 L248.806481,286.72054 C247.622464,285.67572 245.786978,285.779896 244.729118,286.950339 C243.672292,288.120782 243.776734,289.933641 244.961786,290.977439" id="Fill-253" fill="#F4C2AA"></path>
                    <path d="M244.921101,298.925394 L257.396662,310.286733 C258.532154,311.320501 260.288355,311.218438 261.302081,310.059365 C262.313827,308.901303 262.21384,307.10863 261.078348,306.074863 L248.602787,294.712513 C247.467296,293.679756 245.711095,293.781819 244.698359,294.939881 C243.686613,296.098954 243.785609,297.891627 244.921101,298.925394" id="Fill-254" fill="#F4C2AA"></path>
                    <path d="M232.99931,297.903246 L249.00986,311.289841 C250.239954,312.31896 252.145206,312.217356 253.243274,311.064501 C254.34027,309.910641 254.231858,308.126029 253.00069,307.09691 L236.989067,293.709309 C235.760046,292.681196 233.855868,292.7828 232.756726,293.935655 C231.65973,295.08851 231.768142,296.874127 232.99931,297.903246" id="Fill-255" fill="#F4C2AA"></path>
                    <polyline id="Fill-256" fill="#FFFFFE" points="243 273.988886 240.891441 272.125953 236.208768 268 222.804802 282.881757 220 286.004911 220.901879 286.79888 222.871608 288.550162 226.780793 292 227.529228 291.166746 236.973904 280.674564 240.798539 276.432824 241.077244 276.128882 243 273.988886"></polyline>
                    <path d="M236.489283,138.698691 L226.387636,126.535904 L224.693923,125.089814 C224.481703,125.340646 225.655984,121.438033 221.585412,127.04366 C218.112087,131.83383 209.6991,145.554412 205.403172,152.900626 C192.252638,175.394217 186.101305,195.537912 187.10581,212.784353 C189.191625,248.63091 216.090949,285.450329 217.233903,287 L218.824538,285.810835 L221.750135,283.633578 L233.798138,274.656452 L235.494884,273.405341 L238.176934,271.397674 L240,270.043996 C239.783738,269.741374 216.996419,238.417906 215.40073,211.115866 C214.190069,190.308026 223.952165,168.608565 234.45905,154.760028 C235.959745,152.795013 235.355425,140.039167 236.489283,138.698691" id="Fill-257" fill="#4A90E2"></path>
                </g>
            </g>
        </g>
    </g>
</svg>