<?xml version="1.0" encoding="UTF-8"?>
<svg width="382px" height="386px" viewBox="0 0 382 386" version="1.1" xmlns="http://www.w3.org/2000/svg" xmlns:xlink="http://www.w3.org/1999/xlink">
    <!-- Generator: Sketch 47.1 (45422) - http://www.bohemiancoding.com/sketch -->
    <title>chat</title>
    <desc>Created with Sketch.</desc>
    <defs></defs>
    <g id="Page-1" stroke="none" stroke-width="1" fill="none" fill-rule="evenodd">
        <g id="Desktop-HD-Copy" transform="translate(-848.000000, -2050.000000)" fill="#F5A723">
            <g id="Group-12" transform="translate(135.000000, 2021.000000)">
                <path d="M1019.1679,158.030996 C1020.18774,151.963545 1020.8642,145.88964 1020.8642,139.902228 C1020.86549,78.8894926 971.224708,29.25 910.211973,29.25 L824.149703,29.25 C763.136968,29.25 713.496184,78.8894926 713.496184,139.902228 C713.496184,171.407789 726.903959,201.271265 750.37983,222.295627 L750.37983,291.804084 L787.670124,270.828778 C791.788245,328.11584 839.597174,373.501663 897.916994,373.501663 L983.980555,373.501663 C984.116105,373.501663 984.256818,373.501663 984.405277,373.495208 L1057.74914,414.75 L1057.74914,345.241543 C1081.2263,324.21718 1094.63278,294.353704 1094.63278,262.848144 C1094.63407,214.144588 1062.96198,172.778774 1019.1679,158.030996 L1019.1679,158.030996 L1019.1679,158.030996 Z M787.58363,256.550905 C787.565557,256.637398 787.541029,256.7226 787.521665,256.809094 L762.673518,270.782304 L762.673518,216.660643 L760.506018,214.821044 C738.448898,196.059712 725.792454,168.752311 725.792454,139.903519 C725.792454,85.670837 769.918312,41.5462698 824.149703,41.5462698 L910.213264,41.5462698 C964.445946,41.5462698 1008.57051,85.6721279 1008.57051,139.903519 C1008.57051,144.796208 1008.18323,149.770227 1007.40866,154.749409 C999.847585,153.108615 992.021864,152.198498 983.980555,152.198498 L910.211973,152.198498 L897.916994,152.198498 L768.822298,152.198498 L768.822298,164.493477 L847.459041,164.493477 C813.544574,181.963862 789.864734,216.407618 787.58363,256.550905 L787.58363,256.550905 L787.58363,256.550905 Z M1047.62424,337.768251 L1045.45416,339.606559 L1045.45416,393.72822 L987.417056,361.080171 L985.74528,361.111154 C985.345086,361.124063 984.946184,361.148591 983.980555,361.209266 L897.916994,361.209266 C843.684312,361.209266 799.559745,317.083408 799.559745,262.852017 C799.559745,208.620626 843.685603,164.494768 897.916994,164.494768 L910.211973,164.494768 L983.980555,164.494768 C1038.21324,164.494768 1082.3378,208.620626 1082.3378,262.852017 C1082.3391,291.699517 1069.68136,319.005628 1047.62424,337.768251 L1047.62424,337.768251 Z M963.067215,274.788112 C979.179524,265.880578 990.128045,248.723893 990.128045,229.039534 C990.128045,200.226889 966.688321,176.787165 937.875676,176.787165 C909.06303,176.787165 885.623306,200.226889 885.623306,229.039534 C885.623306,248.723893 896.571828,265.880578 912.684137,274.788112 C893.079816,284.21848 879.475817,304.221703 879.475817,327.396783 L879.475817,348.912996 L996.275534,348.912996 L996.275534,327.396783 C996.275534,304.221703 982.671535,284.21848 963.067215,274.788112 L963.067215,274.788112 Z M897.918285,229.039534 C897.918285,207.006942 915.844375,189.082143 937.875676,189.082143 C959.906976,189.082143 977.833066,207.008233 977.833066,229.039534 C977.833066,251.070835 959.906976,268.996924 937.875676,268.996924 C915.844375,268.996924 897.918285,251.072126 897.918285,229.039534 L897.918285,229.039534 Z M983.979264,336.618017 L891.769505,336.618017 L891.769505,327.396783 C891.769505,301.971582 912.449184,281.291903 937.874385,281.291903 C963.299585,281.291903 983.979264,301.971582 983.979264,327.396783 L983.979264,336.618017 L983.979264,336.618017 Z M922.506952,219.8183 C925.902117,219.8183 928.654441,217.065975 928.654441,213.67081 C928.654441,210.275646 925.902117,207.523321 922.506952,207.523321 C919.111787,207.523321 916.359463,210.275646 916.359463,213.67081 C916.359463,217.065975 919.111787,219.8183 922.506952,219.8183 L922.506952,219.8183 Z M953.244399,219.8183 C956.639564,219.8183 959.391889,217.065975 959.391889,213.67081 C959.391889,210.275646 956.639564,207.523321 953.244399,207.523321 C949.849235,207.523321 947.09691,210.275646 947.09691,213.67081 C947.09691,217.065975 949.849235,219.8183 953.244399,219.8183 L953.244399,219.8183 Z M967.229228,241.967077 L957.424485,234.553168 C952.685419,240.816843 945.560683,244.406966 937.875676,244.406966 C930.190668,244.406966 923.067223,240.816843 918.326866,234.553168 L908.515669,241.967077 C915.602968,251.329024 926.299754,256.701945 937.875676,256.701945 C949.451597,256.701945 960.147093,251.329024 967.229228,241.967077 L967.229228,241.967077 Z M768.823589,78.4286245 L965.539378,78.4286245 L965.539378,90.7236034 L768.823589,90.7236034 L768.823589,78.4286245 L768.823589,78.4286245 Z M965.539378,115.313561 L965.539378,127.60854 L768.823589,127.60854 L768.823589,115.313561 L965.539378,115.313561 Z" id="chat"></path>
            </g>
        </g>
    </g>
</svg>